HIERARCHY
ROOT Hips
{
  OFFSET 267.745 86.9975 -272.335
  CHANNELS 6 Xposition Yposition Zposition Zrotation Xrotation Yrotation
  JOINT LeftUpLeg
  {
    OFFSET 8.64259 1.95398 -2.38835
    CHANNELS 3 Zrotation Xrotation Yrotation
    JOINT LeftLeg
    {
      OFFSET 43.7702 0 0
      CHANNELS 3 Zrotation Xrotation Yrotation
      JOINT LeftFoot
      {
        OFFSET 40.6238 0 0
        CHANNELS 3 Zrotation Xrotation Yrotation
        JOINT LeftToeBase
        {
          OFFSET 12.7242 0 0
          CHANNELS 3 Zrotation Xrotation Yrotation
          End Site
          {
            OFFSET 0 0 0
          }
        }
      }
    }
  }
  JOINT RightUpLeg
  {
    OFFSET -8.2249 1.95398 -2.59336
    CHANNELS 3 Zrotation Xrotation Yrotation
    JOINT RightLeg
    {
      OFFSET 43.5653 0 0
      CHANNELS 3 Zrotation Xrotation Yrotation
      JOINT RightFoot
      {
        OFFSET 40.6238 0 0
        CHANNELS 3 Zrotation Xrotation Yrotation
        JOINT RightToeBase
        {
          OFFSET 12.7242 0 0
          CHANNELS 3 Zrotation Xrotation Yrotation
          End Site
          {
            OFFSET 0 0 0
          }
        }
      }
    }
  }
  JOINT Spine
  {
    OFFSET 0.165834 0.87714 6.61349
    CHANNELS 3 Zrotation Xrotation Yrotation
    JOINT Spine1
    {
      OFFSET 7.38963 1.71661e-005 0
      CHANNELS 3 Zrotation Xrotation Yrotation
      JOINT Spine2
      {
        OFFSET 11.9445 1.14441e-005 0
        CHANNELS 3 Zrotation Xrotation Yrotation
        JOINT Spine3
        {
          OFFSET 14.7254 4.19617e-005 0
          CHANNELS 3 Zrotation Xrotation Yrotation
          JOINT Spine4
          {
            OFFSET 10.9679 0 0
            CHANNELS 3 Zrotation Xrotation Yrotation
            JOINT RightShoulder
            {
              OFFSET 2.46616 -1.6653 3.69651
              CHANNELS 3 Zrotation Xrotation Yrotation
              JOINT RightArm
              {
                OFFSET 13.0012 0 0
                CHANNELS 3 Zrotation Xrotation Yrotation
                JOINT RightForeArm
                {
                  OFFSET 28.7848 1.52588e-005 0
                  CHANNELS 3 Zrotation Xrotation Yrotation
                  JOINT RightHand
                  {
                    OFFSET 26.5688 1.52588e-005 0
                    CHANNELS 3 Zrotation Xrotation Yrotation
                    End Site
                    {
                      OFFSET 0 0 0
                    }
                  }
                }
              }
            }
            JOINT LeftShoulder
            {
              OFFSET 2.38034 -1.29275 -3.7523
              CHANNELS 3 Zrotation Xrotation Yrotation
              JOINT LeftArm
              {
                OFFSET 16.3182 6.10352e-005 0
                CHANNELS 3 Zrotation Xrotation Yrotation
                JOINT LeftForeArm
                {
                  OFFSET 27.0901 0 0
                  CHANNELS 3 Zrotation Xrotation Yrotation
                  JOINT LeftHand
                  {
                    OFFSET 24.5451 1.52588e-005 0
                    CHANNELS 3 Zrotation Xrotation Yrotation
                    End Site
                    {
                      OFFSET 0 0 0
                    }
                  }
                }
              }
            }
            JOINT Neck
            {
              OFFSET 5.0226 -0.0266342 0
              CHANNELS 3 Zrotation Xrotation Yrotation
              JOINT Head
              {
                OFFSET 6.69364 2.86102e-005 0
                CHANNELS 3 Zrotation Xrotation Yrotation
                End Site
                {
                  OFFSET 0 0 0
                }
              }
            }
          }
        }
      }
    }
  }
}
MOTION
Frames:	7
Frame Time:	0.0416667
-141.303 97.1043 22.4313 142.939 -86.1068 143.416 -174.322 -2.3577 90.7661 -8.24188 18.1364 1.98188 56.758 1.62269 12.9807 40.6486 -1.30476 -1.81528 176.119 3.28135 89.1701 -18.4212 -2.47239 -0.857938 61.1163 7.99806 20.5596 24.3713 0.728259 2.84946 -0.269625 7.10721 -90.1199 12.6591 -0.592732 -0.169875 0.988282 -0.599631 -0.143628 -21.5477 -0.514272 -0.340157 -1.53502 -0.514275 -0.340169 101.5 -52.3855 -83.1773 31.1823 -1.59411 -6.67424 -0.189092 -18.3036 -11.8365 -12.0418 -0.732355 1.94899 -80.3607 -51.8667 93.1275 -30.1047 -2.4077 -17.7271 -1.19922 42.4699 -0.722477 -0.31305 -0.145324 -7.41755 -2.58223 1.50291 -3.60392 -16.2555 1.55499 3.42651 
-141.348 97.1511 22.4764 145.28 -86.3409 145.778 -173.701 -2.34565 91.0891 -7.96795 18.7174 1.45794 56.6995 1.50823 13.3715 40.3359 -1.26035 -2.12196 176.219 3.2237 89.2521 -18.1023 -2.74297 -0.916196 60.9656 7.9757 20.5554 24.5362 0.732385 2.52864 -0.219191 7.11233 -90.0898 12.6491 -0.478189 -0.123241 0.978198 -0.483154 -0.102083 -21.5575 -0.419044 -0.261262 -1.54484 -0.419044 -0.261269 101.79 -52.7544 -82.7355 31.2207 -1.56608 -6.83849 -0.281912 -18.4802 -11.9976 -12.1777 -0.767302 2.19137 -80.591 -50.8248 92.7336 -30.99 -2.37861 -17.872 -1.32867 42.4303 -0.372626 -0.665475 -0.135564 -7.37635 -2.00969 1.2126 -5.78518 -16.7281 1.3036 5.4886 
-141.421 97.0861 22.5298 154.282 -86.363 155.052 -173.799 -2.55024 91.2347 -8.3807 17.5751 1.79714 57.1311 1.77099 12.7592 40.3131 -1.26342 -1.72524 176.237 3.09222 89.5029 -18.4051 -3.41158 -0.797382 61.1532 7.69979 20.0598 25.0464 0.622902 2.48923 -0.170874 7.1389 -90.1675 12.5955 -0.419252 -0.285688 0.924605 -0.431421 -0.266964 -21.6106 -0.31401 -0.398482 -1.59799 -0.314007 -0.39848 101.601 -52.2211 -83.0269 31.2826 -1.66977 -6.85196 -0.306246 -18.4103 -11.7932 -11.0025 -0.604407 1.2619 -80.4177 -52.2106 93.0587 -29.584 -2.01579 -17.9567 -1.8024 42.2355 -0.363234 -0.85765 -0.127902 -7.186 -1.27224 1.12151 -6.98311 -18.019 1.05776 7.82566 
-141.425 97.0863 22.5214 153.452 -86.2906 154.361 -173.749 -2.50932 91.3586 -8.50182 17.8763 1.84726 57.0957 1.7857 13.0184 40.5107 -1.28927 -1.66623 176.189 3.02629 89.6288 -18.3213 -3.40471 -0.673352 60.9462 7.62556 19.6109 25.4239 0.449309 3.20829 -0.167481 7.15547 -90.1995 12.5622 -0.427739 -0.348802 0.891289 -0.442673 -0.329645 -21.6438 -0.303134 -0.461231 -1.63116 -0.303132 -0.46123 101.752 -52.0515 -82.7985 31.3012 -1.73521 -7.01872 -0.256841 -18.3344 -11.7825 -11.1107 -0.611464 1.26406 -80.4347 -52.5467 93.049 -29.5701 -2.07746 -17.9018 -1.59694 41.1697 -0.615945 0.0399075 -0.149336 -7.16775 -0.765118 1.14875 -6.59873 -18.5938 1.0634 7.50593 
-141.442 97.1018 22.5396 153.302 -86.2407 154.205 -173.661 -2.66927 91.4201 -8.24724 17.9085 1.79237 57.0114 1.77692 12.9015 40.4395 -1.2767 -1.91556 176.189 2.96079 89.6508 -18.3244 -3.37367 -0.677228 61.0777 7.53414 19.4277 25.0297 0.520928 3.33283 -0.17182 7.16892 -90.1897 12.5353 -0.431649 -0.328834 0.864347 -0.445701 -0.309528 -21.6708 -0.312871 -0.443357 -1.65816 -0.312866 -0.443361 101.692 -52.1653 -82.8879 31.4028 -1.5854 -7.03021 -0.350969 -18.4833 -11.8226 -11.1762 -0.601451 1.11645 -80.5501 -52.1335 92.8588 -29.9717 -2.203 -17.8741 -1.33703 42.1767 -0.733071 -0.44665 -0.138512 -7.22414 -0.74943 1.02025 -6.84131 -18.3902 0.954155 7.72903 
-141.447 97.0938 22.5304 152.819 -86.2058 153.728 -173.706 -2.51009 91.4072 -8.61912 17.725 1.84347 57.3014 1.87895 12.697 40.0325 -1.22657 -1.79537 176.296 2.80739 89.68 -18.0978 -3.27125 -0.806844 61.0961 7.65682 20.0623 25.0552 0.630567 2.3995 -0.175449 7.17713 -90.1902 12.5189 -0.43915 -0.329184 0.847947 -0.453202 -0.30954 -21.6872 -0.320592 -0.445923 -1.67459 -0.320587 -0.445928 101.688 -52.0789 -82.8943 31.5766 -1.56145 -7.02907 -0.350705 -18.4721 -11.8509 -11.2749 -0.601484 1.05907 -80.5061 -51.9441 92.9152 -30.0309 -1.82669 -17.9766 -1.6392 41.9644 -0.532791 -0.148999 -0.149411 -7.41785 -1.46531 0.770367 -7.86307 -17.1757 0.678559 9.43546 
-141.468 97.0951 22.552 151.54 -86.2135 152.4 -173.769 -2.59506 91.3504 -8.34273 17.9537 1.86385 56.9371 1.69576 12.9173 40.6076 -1.2997 -1.80477 176.187 2.95634 89.6348 -18.258 -3.31043 -0.682763 60.9556 7.57522 19.4728 25.2054 0.477049 3.37741 -0.176588 7.18335 -90.1958 12.5097 -0.442513 -0.3398 0.83878 -0.45726 -0.31993 -21.6964 -0.323326 -0.457539 -1.68375 -0.323315 -0.457535 101.744 -51.9631 -82.8116 31.5614 -1.69051 -7.10707 -0.262477 -18.2563 -11.8351 -11.3882 -0.615378 1.14127 -80.5075 -52.0902 92.9198 -30.2076 -2.15983 -18.0668 -1.44562 42.2047 -0.553307 -0.253642 -0.148951 -7.5405 -1.38653 0.819189 -7.93514 -17.1257 0.728119 9.59456 
